%TF.GenerationSoftware,KiCad,Pcbnew,9.0.0*%
%TF.CreationDate,2025-03-28T18:05:30-06:00*%
%TF.ProjectId,Dark_Passenger_Turret_MCU,4461726b-5f50-4617-9373-656e6765725f,1.0*%
%TF.SameCoordinates,Original*%
%TF.FileFunction,Soldermask,Top*%
%TF.FilePolarity,Negative*%
%FSLAX46Y46*%
G04 Gerber Fmt 4.6, Leading zero omitted, Abs format (unit mm)*
G04 Created by KiCad (PCBNEW 9.0.0) date 2025-03-28 18:05:30*
%MOMM*%
%LPD*%
G01*
G04 APERTURE LIST*
G04 Aperture macros list*
%AMRoundRect*
0 Rectangle with rounded corners*
0 $1 Rounding radius*
0 $2 $3 $4 $5 $6 $7 $8 $9 X,Y pos of 4 corners*
0 Add a 4 corners polygon primitive as box body*
4,1,4,$2,$3,$4,$5,$6,$7,$8,$9,$2,$3,0*
0 Add four circle primitives for the rounded corners*
1,1,$1+$1,$2,$3*
1,1,$1+$1,$4,$5*
1,1,$1+$1,$6,$7*
1,1,$1+$1,$8,$9*
0 Add four rect primitives between the rounded corners*
20,1,$1+$1,$2,$3,$4,$5,0*
20,1,$1+$1,$4,$5,$6,$7,0*
20,1,$1+$1,$6,$7,$8,$9,0*
20,1,$1+$1,$8,$9,$2,$3,0*%
G04 Aperture macros list end*
%ADD10RoundRect,0.249999X-0.850001X0.850001X-0.850001X-0.850001X0.850001X-0.850001X0.850001X0.850001X0*%
%ADD11C,2.200000*%
%ADD12RoundRect,0.250001X-0.624999X0.462499X-0.624999X-0.462499X0.624999X-0.462499X0.624999X0.462499X0*%
%ADD13R,1.700000X1.700000*%
%ADD14O,1.700000X1.700000*%
%ADD15C,3.000000*%
%ADD16RoundRect,0.250000X0.400000X0.625000X-0.400000X0.625000X-0.400000X-0.625000X0.400000X-0.625000X0*%
%ADD17RoundRect,0.250000X-0.625000X0.400000X-0.625000X-0.400000X0.625000X-0.400000X0.625000X0.400000X0*%
%ADD18RoundRect,0.102000X-0.754000X-0.754000X0.754000X-0.754000X0.754000X0.754000X-0.754000X0.754000X0*%
%ADD19C,1.712000*%
%ADD20C,1.100000*%
%ADD21RoundRect,0.249999X-0.850001X-0.850001X0.850001X-0.850001X0.850001X0.850001X-0.850001X0.850001X0*%
%ADD22R,2.000000X2.000000*%
%ADD23C,2.000000*%
%ADD24R,1.600000X1.600000*%
%ADD25C,1.600000*%
%ADD26RoundRect,0.250000X-1.050000X-1.050000X1.050000X-1.050000X1.050000X1.050000X-1.050000X1.050000X0*%
%ADD27C,2.600000*%
%ADD28RoundRect,0.249999X0.850001X0.850001X-0.850001X0.850001X-0.850001X-0.850001X0.850001X-0.850001X0*%
%ADD29RoundRect,0.250000X-1.050000X1.050000X-1.050000X-1.050000X1.050000X-1.050000X1.050000X1.050000X0*%
G04 APERTURE END LIST*
D10*
%TO.C,J13*%
X62484200Y-35147600D03*
D11*
X62484200Y-37687600D03*
X62484200Y-40227600D03*
X62484200Y-42767600D03*
%TD*%
D12*
%TO.C,D3*%
X72974200Y-79507100D03*
X72974200Y-82482100D03*
%TD*%
D13*
%TO.C,J1*%
X95428600Y-66134200D03*
D14*
X97968600Y-66134200D03*
X100508600Y-66134200D03*
X103048600Y-66134200D03*
X105588600Y-66134200D03*
X108128600Y-66134200D03*
X110668600Y-66134200D03*
X113208600Y-66134200D03*
X115748600Y-66134200D03*
X118288600Y-66134200D03*
X120828600Y-66134200D03*
X123368600Y-66134200D03*
X125908600Y-66134200D03*
X128448600Y-66134200D03*
X130988600Y-66134200D03*
X133528600Y-66134200D03*
X136068600Y-66134200D03*
X138608600Y-66134200D03*
X141148600Y-66134200D03*
X143688600Y-66134200D03*
X146228600Y-66134200D03*
X148768600Y-66134200D03*
%TD*%
D15*
%TO.C,H3*%
X155794836Y-82412100D03*
%TD*%
D13*
%TO.C,J11*%
X127091800Y-74441000D03*
D14*
X124551800Y-74441000D03*
X122011800Y-74441000D03*
X119471800Y-74441000D03*
%TD*%
D12*
%TO.C,D2*%
X86182200Y-79507100D03*
X86182200Y-82482100D03*
%TD*%
D15*
%TO.C,H4*%
X46402185Y-82412100D03*
%TD*%
D16*
%TO.C,R4*%
X91593200Y-66719800D03*
X88493200Y-66719800D03*
%TD*%
%TO.C,R6*%
X91593200Y-40278400D03*
X88493200Y-40278400D03*
%TD*%
D17*
%TO.C,R2*%
X89484200Y-79444600D03*
X89484200Y-82544600D03*
%TD*%
D13*
%TO.C,J16*%
X100578800Y-56363000D03*
D14*
X103118800Y-56363000D03*
%TD*%
D13*
%TO.C,J18*%
X68643181Y-42848638D03*
D14*
X68643181Y-40308638D03*
X68643181Y-37768638D03*
X68643181Y-35228638D03*
%TD*%
D15*
%TO.C,H2*%
X46402185Y-31037757D03*
%TD*%
D13*
%TO.C,J19*%
X76479600Y-66059400D03*
D14*
X79019600Y-66059400D03*
X81559600Y-66059400D03*
%TD*%
D17*
%TO.C,R3*%
X76276200Y-79444600D03*
X76276200Y-82544600D03*
%TD*%
D13*
%TO.C,J2*%
X95428600Y-40734200D03*
D14*
X97968600Y-40734200D03*
X100508600Y-40734200D03*
X103048600Y-40734200D03*
X105588600Y-40734200D03*
X108128600Y-40734200D03*
X110668600Y-40734200D03*
X113208600Y-40734200D03*
X115748600Y-40734200D03*
X118288600Y-40734200D03*
X120828600Y-40734200D03*
X123368600Y-40734200D03*
X125908600Y-40734200D03*
X128448600Y-40734200D03*
X130988600Y-40734200D03*
X133528600Y-40734200D03*
X136068600Y-40734200D03*
X138608600Y-40734200D03*
X141148600Y-40734200D03*
X143688600Y-40734200D03*
X146228600Y-40734200D03*
X148768600Y-40734200D03*
%TD*%
D13*
%TO.C,J20*%
X76479600Y-39592600D03*
D14*
X79019600Y-39592600D03*
X81559600Y-39592600D03*
%TD*%
D17*
%TO.C,R1*%
X82880200Y-79444600D03*
X82880200Y-82544600D03*
%TD*%
D18*
%TO.C,U1*%
X72644200Y-56585200D03*
D19*
X72644200Y-59125200D03*
X72644200Y-61665200D03*
X72644200Y-64205200D03*
X72644200Y-66745200D03*
X72644200Y-69285200D03*
X72644200Y-71825200D03*
X72644200Y-74365200D03*
X85344200Y-56585200D03*
X85344200Y-59125200D03*
X85344200Y-61665200D03*
X85344200Y-64205200D03*
X85344200Y-66745200D03*
X85344200Y-69285200D03*
X85344200Y-71825200D03*
X85344200Y-74365200D03*
X80264200Y-74365200D03*
X82804200Y-74365200D03*
%TD*%
D13*
%TO.C,J10*%
X127091800Y-70351600D03*
D14*
X124551800Y-70351600D03*
X122011800Y-70351600D03*
X119471800Y-70351600D03*
%TD*%
D20*
%TO.C,J4*%
X144576800Y-83026600D03*
X147116800Y-83026600D03*
X149656800Y-83026600D03*
D21*
X144576800Y-80486600D03*
D11*
X147116800Y-80486600D03*
X149656800Y-80486600D03*
%TD*%
D21*
%TO.C,J9*%
X127330200Y-80486600D03*
D11*
X129870200Y-80486600D03*
X132410200Y-80486600D03*
X134950200Y-80486600D03*
X137490200Y-80486600D03*
X140030200Y-80486600D03*
%TD*%
D22*
%TO.C,C1*%
X112649200Y-51026400D03*
D23*
X112649200Y-56026400D03*
%TD*%
D10*
%TO.C,J12*%
X62484200Y-61639800D03*
D11*
X62484200Y-64179800D03*
X62484200Y-66719800D03*
X62484200Y-69259800D03*
%TD*%
D21*
%TO.C,J7*%
X112598200Y-80486600D03*
D11*
X115138200Y-80486600D03*
X117678200Y-80486600D03*
X120218200Y-80486600D03*
X122758200Y-80486600D03*
%TD*%
D13*
%TO.C,J17*%
X68501181Y-69289619D03*
D14*
X68501181Y-66749619D03*
X68501181Y-64209619D03*
X68501181Y-61669619D03*
%TD*%
D24*
%TO.C,C3*%
X68783400Y-49651000D03*
D25*
X63783400Y-49651000D03*
%TD*%
D24*
%TO.C,C2*%
X68783400Y-76117800D03*
D25*
X63783400Y-76117800D03*
%TD*%
D21*
%TO.C,J6*%
X97663000Y-80486600D03*
D11*
X100203000Y-80486600D03*
X102743000Y-80486600D03*
X105283000Y-80486600D03*
X107823000Y-80486600D03*
%TD*%
D26*
%TO.C,J8*%
X53340200Y-78982700D03*
D27*
X58340200Y-78982700D03*
%TD*%
D13*
%TO.C,J15*%
X76479600Y-43859800D03*
D14*
X79019600Y-43859800D03*
X81559600Y-43859800D03*
%TD*%
D15*
%TO.C,H1*%
X155794836Y-31037757D03*
%TD*%
D28*
%TO.C,J3*%
X145948600Y-32917900D03*
D11*
X143408600Y-32917900D03*
X140868600Y-32917900D03*
X138328600Y-32917900D03*
X135788600Y-32917900D03*
X133248600Y-32917900D03*
X130708600Y-32917900D03*
X128168600Y-32917900D03*
X125628600Y-32917900D03*
X123088600Y-32917900D03*
%TD*%
D12*
%TO.C,D1*%
X79578200Y-79507100D03*
X79578200Y-82482100D03*
%TD*%
D29*
%TO.C,J5*%
X55575200Y-49828800D03*
D27*
X55575200Y-54828800D03*
%TD*%
D13*
%TO.C,J14*%
X76479600Y-70326600D03*
D14*
X79019600Y-70326600D03*
X81559600Y-70326600D03*
%TD*%
D18*
%TO.C,U2*%
X72644200Y-30118400D03*
D19*
X72644200Y-32658400D03*
X72644200Y-35198400D03*
X72644200Y-37738400D03*
X72644200Y-40278400D03*
X72644200Y-42818400D03*
X72644200Y-45358400D03*
X72644200Y-47898400D03*
X85344200Y-30118400D03*
X85344200Y-32658400D03*
X85344200Y-35198400D03*
X85344200Y-37738400D03*
X85344200Y-40278400D03*
X85344200Y-42818400D03*
X85344200Y-45358400D03*
X85344200Y-47898400D03*
X80264200Y-47898400D03*
X82804200Y-47898400D03*
%TD*%
M02*
