M48
; DRILL file {KiCad 9.0.0} date 2025-03-28T18:05:28-0600
; FORMAT={-:-/ absolute / metric / decimal}
; #@! TF.CreationDate,2025-03-28T18:05:28-06:00
; #@! TF.GenerationSoftware,Kicad,Pcbnew,9.0.0
; #@! TF.FileFunction,Plated,1,2,PTH
FMAT,2
METRIC
; #@! TA.AperFunction,Plated,PTH,ViaDrill
T1C0.300
; #@! TA.AperFunction,Plated,PTH,ComponentDrill
T2C0.800
; #@! TA.AperFunction,Plated,PTH,ComponentDrill
T3C1.000
; #@! TA.AperFunction,Plated,PTH,ComponentDrill
T4C1.100
; #@! TA.AperFunction,Plated,PTH,ComponentDrill
T5C1.300
%
G90
G05
T1
X72.263Y-77.616
X78.994Y-77.515
T2
X63.783Y-49.651
X63.783Y-76.118
X68.783Y-49.651
X68.783Y-76.118
T3
X68.501Y-61.67
X68.501Y-64.21
X68.501Y-66.75
X68.501Y-69.29
X68.643Y-35.229
X68.643Y-37.769
X68.643Y-40.309
X68.643Y-42.849
X72.644Y-30.118
X72.644Y-32.658
X72.644Y-35.198
X72.644Y-37.738
X72.644Y-40.278
X72.644Y-42.818
X72.644Y-45.358
X72.644Y-47.898
X72.644Y-56.585
X72.644Y-59.125
X72.644Y-61.665
X72.644Y-64.205
X72.644Y-66.745
X72.644Y-69.285
X72.644Y-71.825
X72.644Y-74.365
X76.48Y-39.593
X76.48Y-43.86
X76.48Y-66.059
X76.48Y-70.327
X79.02Y-39.593
X79.02Y-43.86
X79.02Y-66.059
X79.02Y-70.327
X80.264Y-47.898
X80.264Y-74.365
X81.56Y-39.593
X81.56Y-43.86
X81.56Y-66.059
X81.56Y-70.327
X82.804Y-47.898
X82.804Y-74.365
X85.344Y-30.118
X85.344Y-32.658
X85.344Y-35.198
X85.344Y-37.738
X85.344Y-40.278
X85.344Y-42.818
X85.344Y-45.358
X85.344Y-47.898
X85.344Y-56.585
X85.344Y-59.125
X85.344Y-61.665
X85.344Y-64.205
X85.344Y-66.745
X85.344Y-69.285
X85.344Y-71.825
X85.344Y-74.365
X95.429Y-40.734
X95.429Y-66.134
X97.969Y-40.734
X97.969Y-66.134
X100.509Y-40.734
X100.509Y-66.134
X100.579Y-56.363
X103.049Y-40.734
X103.049Y-66.134
X103.119Y-56.363
X105.589Y-40.734
X105.589Y-66.134
X108.129Y-40.734
X108.129Y-66.134
X110.669Y-40.734
X110.669Y-66.134
X112.649Y-51.026
X112.649Y-56.026
X113.209Y-40.734
X113.209Y-66.134
X115.749Y-40.734
X115.749Y-66.134
X118.289Y-40.734
X118.289Y-66.134
X119.472Y-70.352
X119.472Y-74.441
X120.829Y-40.734
X120.829Y-66.134
X122.012Y-70.352
X122.012Y-74.441
X123.369Y-40.734
X123.369Y-66.134
X124.552Y-70.352
X124.552Y-74.441
X125.909Y-40.734
X125.909Y-66.134
X127.092Y-70.352
X127.092Y-74.441
X128.449Y-40.734
X128.449Y-66.134
X130.989Y-40.734
X130.989Y-66.134
X133.529Y-40.734
X133.529Y-66.134
X136.069Y-40.734
X136.069Y-66.134
X138.609Y-40.734
X138.609Y-66.134
X141.149Y-40.734
X141.149Y-66.134
X143.689Y-40.734
X143.689Y-66.134
X146.229Y-40.734
X146.229Y-66.134
X148.769Y-40.734
X148.769Y-66.134
T4
X62.484Y-35.148
X62.484Y-37.688
X62.484Y-40.228
X62.484Y-42.768
X62.484Y-61.64
X62.484Y-64.18
X62.484Y-66.72
X62.484Y-69.26
X97.663Y-80.487
X100.203Y-80.487
X102.743Y-80.487
X105.283Y-80.487
X107.823Y-80.487
X112.598Y-80.487
X115.138Y-80.487
X117.678Y-80.487
X120.218Y-80.487
X122.758Y-80.487
X123.089Y-32.918
X125.629Y-32.918
X127.33Y-80.487
X128.169Y-32.918
X129.87Y-80.487
X130.709Y-32.918
X132.41Y-80.487
X133.249Y-32.918
X134.95Y-80.487
X135.789Y-32.918
X137.49Y-80.487
X138.329Y-32.918
X140.03Y-80.487
X140.869Y-32.918
X143.409Y-32.918
X144.577Y-80.487
X145.949Y-32.918
X147.117Y-80.487
X149.657Y-80.487
T5
X53.34Y-78.983
X55.575Y-49.829
X55.575Y-54.829
X58.34Y-78.983
M30
