M48
; DRILL file {KiCad 9.0.0} date 2025-03-28T17:52:29-0600
; FORMAT={-:-/ absolute / metric / decimal}
; #@! TF.CreationDate,2025-03-28T17:52:29-06:00
; #@! TF.GenerationSoftware,Kicad,Pcbnew,9.0.0
; #@! TF.FileFunction,Plated,1,2,PTH
FMAT,2
METRIC
; #@! TA.AperFunction,Plated,PTH,ComponentDrill
T1C1.000
; #@! TA.AperFunction,Plated,PTH,ComponentDrill
T2C1.100
; #@! TA.AperFunction,Plated,PTH,ComponentDrill
T3C1.300
%
G90
G05
T1
X110.16Y-49.3
X110.16Y-74.7
X112.7Y-49.3
X112.7Y-74.7
X113.919Y-78.842
X115.24Y-49.3
X115.24Y-62.992
X115.24Y-65.532
X115.24Y-74.7
X116.459Y-78.842
X117.78Y-49.3
X117.78Y-74.7
X118.999Y-78.842
X120.32Y-49.3
X120.32Y-74.7
X121.539Y-78.842
X122.86Y-49.3
X122.86Y-74.7
X124.079Y-78.842
X125.091Y-60.336
X125.091Y-65.336
X125.4Y-49.3
X125.4Y-74.7
X127.94Y-49.3
X127.94Y-74.7
X128.621Y-78.842
X130.48Y-49.3
X130.48Y-74.7
X131.161Y-78.842
X132.179Y-44.999
X133.02Y-49.3
X133.02Y-74.7
X134.719Y-44.999
X135.56Y-49.3
X135.56Y-74.7
X135.611Y-78.842
X135.611Y-82.931
X137.259Y-44.999
X138.1Y-49.3
X138.1Y-74.7
X138.151Y-78.842
X138.151Y-82.931
X139.799Y-44.999
X140.64Y-49.3
X140.64Y-74.7
X140.691Y-78.842
X140.691Y-82.931
X143.18Y-49.3
X143.18Y-74.7
X143.231Y-78.842
X143.231Y-82.931
X145.72Y-49.3
X145.72Y-74.7
X148.26Y-49.3
X148.26Y-74.7
X150.8Y-49.3
X150.8Y-74.7
X151.719Y-44.999
X153.34Y-49.3
X153.34Y-74.7
X154.259Y-44.999
X155.88Y-49.3
X155.88Y-74.7
X156.799Y-44.999
X158.42Y-49.3
X158.42Y-74.7
X160.96Y-49.3
X160.96Y-74.7
X163.5Y-49.3
X163.5Y-74.7
T2
X92.228Y-43.993
X92.228Y-46.533
X92.228Y-49.073
X92.228Y-51.613
X92.228Y-54.153
X92.228Y-56.693
X92.228Y-59.233
X92.228Y-61.773
X92.228Y-66.853
X92.228Y-69.393
X92.228Y-71.933
X92.228Y-74.473
X92.228Y-77.013
X92.228Y-79.553
X92.228Y-82.093
X92.228Y-84.633
X113.46Y-38.0
X116.0Y-38.0
X127.545Y-38.0
X130.085Y-38.0
X132.625Y-38.0
X137.525Y-38.0
X140.065Y-38.0
X141.6Y-88.8
X142.605Y-38.0
X144.14Y-88.8
X145.145Y-38.0
X146.68Y-88.8
X147.685Y-38.0
X149.22Y-88.8
X151.76Y-88.8
X152.299Y-38.0
X154.3Y-88.8
X154.839Y-38.0
X156.84Y-88.8
X157.379Y-38.0
X159.38Y-88.8
X159.919Y-38.0
X161.92Y-88.8
X162.459Y-38.0
T3
X99.7Y-39.527
X104.7Y-39.527
M30
