%TF.GenerationSoftware,KiCad,Pcbnew,9.0.0*%
%TF.CreationDate,2025-03-28T17:52:31-06:00*%
%TF.ProjectId,Dark_Passenger_Base_MCU,4461726b-5f50-4617-9373-656e6765725f,1.0*%
%TF.SameCoordinates,Original*%
%TF.FileFunction,Soldermask,Bot*%
%TF.FilePolarity,Negative*%
%FSLAX46Y46*%
G04 Gerber Fmt 4.6, Leading zero omitted, Abs format (unit mm)*
G04 Created by KiCad (PCBNEW 9.0.0) date 2025-03-28 17:52:31*
%MOMM*%
%LPD*%
G01*
G04 APERTURE LIST*
G04 Aperture macros list*
%AMRoundRect*
0 Rectangle with rounded corners*
0 $1 Rounding radius*
0 $2 $3 $4 $5 $6 $7 $8 $9 X,Y pos of 4 corners*
0 Add a 4 corners polygon primitive as box body*
4,1,4,$2,$3,$4,$5,$6,$7,$8,$9,$2,$3,0*
0 Add four circle primitives for the rounded corners*
1,1,$1+$1,$2,$3*
1,1,$1+$1,$4,$5*
1,1,$1+$1,$6,$7*
1,1,$1+$1,$8,$9*
0 Add four rect primitives between the rounded corners*
20,1,$1+$1,$2,$3,$4,$5,0*
20,1,$1+$1,$4,$5,$6,$7,0*
20,1,$1+$1,$6,$7,$8,$9,0*
20,1,$1+$1,$8,$9,$2,$3,0*%
G04 Aperture macros list end*
%ADD10R,1.700000X1.700000*%
%ADD11O,1.700000X1.700000*%
%ADD12C,3.000000*%
%ADD13RoundRect,0.249999X-0.850001X0.850001X-0.850001X-0.850001X0.850001X-0.850001X0.850001X0.850001X0*%
%ADD14C,2.200000*%
%ADD15RoundRect,0.249999X-0.850001X-0.850001X0.850001X-0.850001X0.850001X0.850001X-0.850001X0.850001X0*%
%ADD16C,1.100000*%
%ADD17RoundRect,0.249999X0.850001X0.850001X-0.850001X0.850001X-0.850001X-0.850001X0.850001X-0.850001X0*%
%ADD18R,2.000000X2.000000*%
%ADD19C,2.000000*%
%ADD20RoundRect,0.250000X1.050000X1.050000X-1.050000X1.050000X-1.050000X-1.050000X1.050000X-1.050000X0*%
%ADD21C,2.600000*%
G04 APERTURE END LIST*
D10*
%TO.C,J13*%
X113919200Y-78841600D03*
D11*
X116459200Y-78841600D03*
X118999200Y-78841600D03*
X121539200Y-78841600D03*
X124079200Y-78841600D03*
%TD*%
D10*
%TO.C,J1*%
X110160000Y-74700000D03*
D11*
X112700000Y-74700000D03*
X115240000Y-74700000D03*
X117780000Y-74700000D03*
X120320000Y-74700000D03*
X122860000Y-74700000D03*
X125400000Y-74700000D03*
X127940000Y-74700000D03*
X130480000Y-74700000D03*
X133020000Y-74700000D03*
X135560000Y-74700000D03*
X138100000Y-74700000D03*
X140640000Y-74700000D03*
X143180000Y-74700000D03*
X145720000Y-74700000D03*
X148260000Y-74700000D03*
X150800000Y-74700000D03*
X153340000Y-74700000D03*
X155880000Y-74700000D03*
X158420000Y-74700000D03*
X160960000Y-74700000D03*
X163500000Y-74700000D03*
%TD*%
D12*
%TO.C,H3*%
X89500000Y-91300000D03*
%TD*%
D10*
%TO.C,J11*%
X143230600Y-82931000D03*
D11*
X140690600Y-82931000D03*
X138150600Y-82931000D03*
X135610600Y-82931000D03*
%TD*%
D12*
%TO.C,H4*%
X168240000Y-91300000D03*
%TD*%
D13*
%TO.C,J15*%
X92227600Y-43992800D03*
D14*
X92227600Y-46532800D03*
X92227600Y-49072800D03*
X92227600Y-51612800D03*
X92227600Y-54152800D03*
X92227600Y-56692800D03*
X92227600Y-59232800D03*
X92227600Y-61772800D03*
%TD*%
D10*
%TO.C,J16*%
X115240000Y-65532000D03*
D11*
X115240000Y-62992000D03*
%TD*%
D15*
%TO.C,J18*%
X141600000Y-88800000D03*
D14*
X144140000Y-88800000D03*
X146680000Y-88800000D03*
X149220000Y-88800000D03*
X151760000Y-88800000D03*
X154300000Y-88800000D03*
X156840000Y-88800000D03*
X159380000Y-88800000D03*
X161920000Y-88800000D03*
%TD*%
D12*
%TO.C,H2*%
X168240000Y-35420000D03*
%TD*%
D10*
%TO.C,J2*%
X110160000Y-49300000D03*
D11*
X112700000Y-49300000D03*
X115240000Y-49300000D03*
X117780000Y-49300000D03*
X120320000Y-49300000D03*
X122860000Y-49300000D03*
X125400000Y-49300000D03*
X127940000Y-49300000D03*
X130480000Y-49300000D03*
X133020000Y-49300000D03*
X135560000Y-49300000D03*
X138100000Y-49300000D03*
X140640000Y-49300000D03*
X143180000Y-49300000D03*
X145720000Y-49300000D03*
X148260000Y-49300000D03*
X150800000Y-49300000D03*
X153340000Y-49300000D03*
X155880000Y-49300000D03*
X158420000Y-49300000D03*
X160960000Y-49300000D03*
X163500000Y-49300000D03*
%TD*%
D10*
%TO.C,J10*%
X143230600Y-78841600D03*
D11*
X140690600Y-78841600D03*
X138150600Y-78841600D03*
X135610600Y-78841600D03*
%TD*%
D16*
%TO.C,J4*%
X132624600Y-35460000D03*
X130084600Y-35460000D03*
X127544600Y-35460000D03*
D17*
X132624600Y-38000000D03*
D14*
X130084600Y-38000000D03*
X127544600Y-38000000D03*
%TD*%
D18*
%TO.C,C1*%
X125090781Y-60335600D03*
D19*
X125090781Y-65335600D03*
%TD*%
D10*
%TO.C,J12*%
X156799280Y-44998640D03*
D11*
X154259280Y-44998640D03*
X151719280Y-44998640D03*
%TD*%
D17*
%TO.C,J7*%
X147684600Y-38000000D03*
D14*
X145144600Y-38000000D03*
X142604600Y-38000000D03*
X140064600Y-38000000D03*
X137524600Y-38000000D03*
%TD*%
D10*
%TO.C,J9*%
X128620720Y-78841600D03*
D11*
X131160720Y-78841600D03*
%TD*%
D13*
%TO.C,J14*%
X92227600Y-66852800D03*
D14*
X92227600Y-69392800D03*
X92227600Y-71932800D03*
X92227600Y-74472800D03*
X92227600Y-77012800D03*
X92227600Y-79552800D03*
X92227600Y-82092800D03*
X92227600Y-84632800D03*
%TD*%
D17*
%TO.C,J6*%
X162458600Y-38000000D03*
D14*
X159918600Y-38000000D03*
X157378600Y-38000000D03*
X154838600Y-38000000D03*
X152298600Y-38000000D03*
%TD*%
D10*
%TO.C,J8*%
X139799060Y-44998640D03*
D11*
X137259060Y-44998640D03*
X134719060Y-44998640D03*
X132179060Y-44998640D03*
%TD*%
D12*
%TO.C,H1*%
X89500000Y-35420000D03*
%TD*%
D16*
%TO.C,J3*%
X116000000Y-35460000D03*
X113460000Y-35460000D03*
D17*
X116000000Y-38000000D03*
D14*
X113460000Y-38000000D03*
%TD*%
D20*
%TO.C,J5*%
X104700000Y-39527500D03*
D21*
X99700000Y-39527500D03*
%TD*%
M02*
